<svg xmlns="http://www.w3.org/2000/svg" xmlns:xlink="http://www.w3.org/1999/xlink" width="33" height="33" viewBox="0 0 33 33">
  <defs>
    <clipPath id="clip-path">
      <rect id="Rectangle_68" data-name="Rectangle 68" width="33" height="33" transform="translate(280 930)" fill="#00c4b3" stroke="#707070" stroke-width="1"/>
    </clipPath>
  </defs>
  <g id="Mask_Group_13" data-name="Mask Group 13" transform="translate(-280 -930)" clip-path="url(#clip-path)">
    <g id="phone-call" transform="translate(280 930)">
      <g id="Group_197" data-name="Group 197" transform="translate(0 0)">
        <path id="Path_56" data-name="Path 56" d="M28.165,4.831A16.5,16.5,0,1,0,33,16.5,16.5,16.5,0,0,0,28.165,4.831ZM24.989,22.984l0,0v-.005l-.836.83A4.4,4.4,0,0,1,20,25a14.62,14.62,0,0,1-4.246-1.9A19.618,19.618,0,0,1,12.4,20.4,19.768,19.768,0,0,1,9.9,17.36a15.4,15.4,0,0,1-1.881-3.806,4.4,4.4,0,0,1,1.1-4.493l.979-.979a.7.7,0,0,1,.988,0l0,0,3.091,3.091a.7.7,0,0,1,0,.988l0,0-1.815,1.815A1.479,1.479,0,0,0,12.21,15.9a21.226,21.226,0,0,0,2.173,2.536,21.1,21.1,0,0,0,2.86,2.4,1.49,1.49,0,0,0,1.9-.165L20.9,18.895a.7.7,0,0,1,.988,0l0,0,3.1,3.1A.7.7,0,0,1,24.989,22.984Z" transform="translate(0 0)" fill="#00c4b3"/>
      </g>
    </g>
  </g>
</svg>
